<svg version="1" xmlns="http://www.w3.org/2000/svg" width="682.667" height="682.667" viewBox="0 0 512.000000 512.000000"><path d="M0 256v256h512V0H0v256zm441-92.6v18.4l-5.7.7c-9.3 1.1-14 4.2-17.9 11.5-1.8 3.3-1.9 7.5-2.4 70-.5 60.4-.7 66.9-2.3 71-2.9 7.2-6.2 12.3-11.5 17.2-9.6 9-17.8 11.8-36.4 12.5l-13.8.6V328h3.8c4.6-.1 10.6-2.2 13.4-4.7 1.1-1 3-3.6 4.2-5.8 2.1-3.9 2.1-4.9 2.6-71 .6-73.7.4-70.8 7-82.2 5.3-9.2 16.3-16 29.3-18.2 2.9-.5 10.7-.9 17.5-1l12.2-.1v18.4zM107.5 149c21.6 1.7 36 7.5 47.5 19 3.6 3.6 8 9.3 9.8 12.7 9.2 17.5 10.4 43.7 3.1 65.7-3.7 11.2-8.3 18.9-16 26.5l-5.9 6 19.5 41.1c10.7 22.6 19.5 41.3 19.5 41.5 0 .3-9.6.5-21.2.5h-21.3l-16-36.5-16-36.5H100v73H62V255.7c0-58.5.3-106.7.7-107 1-1 31-.8 44.8.3zM340 167v18h-30v177h-38V185h-31v-36h99v18zM232.1 325.4c11.4 7.6 10.2 28.3-2.1 34.6-12.5 6.4-27-3.3-27-18.2 0-7.6 5.7-15.7 13.2-18.5 4.5-1.7 11.5-.8 15.9 2.1z"/><path d="M100 218.6v33.7l7.9-.6c14.8-1 23.2-7.1 26.2-19 1.7-6.5 1.7-22.7 0-28.7-2.8-10.1-9.9-16.1-20.6-17.4-2.8-.4-6.9-.9-9.2-1.2l-4.3-.5v33.7z"/></svg>